<svg width="84" height="84" viewBox="0 0 84 84" fill="none" xmlns="http://www.w3.org/2000/svg">
    <path d="M25.7827 51.6992C21.8023 51.6992 18.564 54.9375 18.564 58.918C18.564 62.8985 21.8023 66.1367 25.7827 66.1367C29.7632 66.1367 33.0015 62.8985 33.0015 58.918C33.0015 54.9375 29.7632 51.6992 25.7827 51.6992ZM25.7827 62.8555C23.6117 62.8555 21.8452 61.089 21.8452 58.918C21.8452 56.7469 23.6117 54.9805 25.7827 54.9805C27.9538 54.9805 29.7202 56.7469 29.7202 58.918C29.7202 61.089 27.9538 62.8555 25.7827 62.8555Z" fill="black" />
    <path d="M75.0177 17.8638H66.6094C65.7033 17.8638 64.9687 18.5983 64.9687 19.5044C64.9687 20.4105 65.7033 21.145 66.6094 21.145H75.0177C77.6413 21.145 79.8549 22.9267 80.5163 25.3434H66.6094C65.7033 25.3434 64.9687 26.0779 64.9687 26.984V41.7357C64.9687 42.6418 65.7033 43.3763 66.6094 43.3763H80.7187V57.3075H75.9048C75.1708 54.1003 72.2961 51.6994 68.8695 51.6994C65.4429 51.6994 62.5682 54.1001 61.8342 57.3075H61.6875V26.9984C61.6875 26.0923 60.953 25.3578 60.0469 25.3578H46.9219C46.0158 25.3578 45.2812 26.0923 45.2812 26.9984V40.1763H14.8203C13.9141 40.1763 13.1796 40.9108 13.1796 41.8169C13.1796 42.723 13.9141 43.4575 14.8203 43.4575H45.2812V57.3072H36.9141C36.0079 57.3072 35.2734 58.0417 35.2734 58.9478C35.2734 59.8539 36.0079 60.5884 36.9141 60.5884H61.8479C62.6039 63.7657 65.464 66.1365 68.8695 66.1365C72.2749 66.1365 75.135 63.7657 75.891 60.5884H82.3594C83.2655 60.5884 84 59.8539 84 58.9478V26.846C84 21.8931 79.9706 17.8638 75.0177 17.8638ZM58.4062 41.3393H57.3692C56.4631 41.3393 55.7286 42.0738 55.7286 42.9799C55.7286 43.886 56.4631 44.6206 57.3692 44.6206H58.4062V57.3072H48.5625V28.6391H58.4062V41.3393ZM68.8693 62.8554C66.6983 62.8554 64.9318 61.089 64.9318 58.9179C64.9318 56.7469 66.6983 54.9804 68.8693 54.9804C71.0404 54.9804 72.8068 56.7469 72.8068 58.9179C72.8068 61.089 71.0405 62.8554 68.8693 62.8554ZM80.7187 40.0949H68.25V28.6245H80.7187V40.0949Z" fill="black" />
    <path d="M61.2068 18.344C60.9016 18.0388 60.4784 17.8633 60.0469 17.8633C59.6154 17.8633 59.1921 18.0388 58.887 18.344C58.5818 18.6491 58.4062 19.0724 58.4062 19.5039C58.4062 19.9354 58.5818 20.3587 58.887 20.6638C59.1921 20.969 59.6154 21.1445 60.0469 21.1445C60.4784 21.1445 60.9016 20.969 61.2068 20.6638C61.512 20.3587 61.6875 19.9354 61.6875 19.5039C61.6875 19.0724 61.512 18.6491 61.2068 18.344Z" fill="black" />
    <path d="M53.4844 17.8638H8.98226C4.48465 17.8638 0.749109 21.1869 0.100406 25.5066C0.0365859 25.6817 0 25.8699 0 26.0669V58.9478C0 59.8539 0.734508 60.5884 1.64062 60.5884H13.9909C14.897 60.5884 15.6315 59.8539 15.6315 58.9478C15.6315 58.0417 14.897 57.3073 13.9909 57.3073H3.28125V36.895H8.85938C9.76549 36.895 10.5 36.1605 10.5 35.2544V26.0669C10.5 25.1608 9.76549 24.4263 8.85938 24.4263H3.82167C4.73353 22.4893 6.70327 21.145 8.98209 21.145H53.4844C54.3905 21.145 55.125 20.4105 55.125 19.5044C55.125 18.5983 54.3905 17.8638 53.4844 17.8638ZM7.21875 27.7075V33.6138H3.28125V27.7075H7.21875Z" fill="black" />
    <path d="M10.0193 40.6565C9.71414 40.3513 9.29086 40.1758 8.85938 40.1758C8.42789 40.1758 8.00461 40.3513 7.69945 40.6565C7.3943 40.9616 7.21875 41.3849 7.21875 41.8164C7.21875 42.2495 7.3943 42.6712 7.69945 42.9763C8.00461 43.2831 8.42789 43.457 8.85938 43.457C9.29086 43.457 9.71414 43.2831 10.0193 42.9763C10.3245 42.6712 10.5 42.2479 10.5 41.8164C10.5 41.3849 10.3245 40.9616 10.0193 40.6565Z" fill="black" />
    <path d="M40.3594 24.4263H31.1719C30.2658 24.4263 29.5312 25.1608 29.5312 26.0669V35.2544C29.5312 36.1605 30.2658 36.895 31.1719 36.895H40.3594C41.2655 36.895 42 36.1605 42 35.2544V26.0669C42 25.1608 41.2655 24.4263 40.3594 24.4263ZM38.7188 33.6138H32.8125V27.7075H38.7188V33.6138Z" fill="black" />
    <path d="M24.6094 24.4263H15.4219C14.5158 24.4263 13.7812 25.1608 13.7812 26.0669V35.2544C13.7812 36.1605 14.5158 36.895 15.4219 36.895H24.6094C25.5155 36.895 26.25 36.1605 26.25 35.2544V26.0669C26.25 25.1608 25.5155 24.4263 24.6094 24.4263ZM22.9688 33.6138H17.0625V27.7075H22.9688V33.6138Z" fill="black" />
</svg>
