<svg width="84" height="84" viewBox="0 0 84 84" fill="none" xmlns="http://www.w3.org/2000/svg">
<g clip-path="url(#clip0)">
<path d="M80.6456 29.7216C80.9517 29.4235 81.1425 29.0076 81.1425 28.5466V23.1471C81.1425 20.2983 78.8248 17.9806 75.976 17.9806H72.5949L70.254 8.44924C69.0321 3.47436 64.6009 0 59.4785 0H24.5233C19.4006 0 14.9696 3.47452 13.7477 8.44924L11.4067 17.9808H8.02532C5.17653 17.9808 2.85882 20.2985 2.85882 23.1473V28.5468C2.85882 29.0078 3.04962 29.4237 3.35576 29.7218C1.29415 31.6402 0.00100708 34.3743 0.00100708 37.406V53.9762C0.00100708 54.8823 0.735516 55.6168 1.64164 55.6168H8.8604V59.2262C8.8604 63.0257 11.9515 66.1168 15.751 66.1168C19.5506 66.1168 22.6417 63.0257 22.6417 59.2262V55.6168H40.3603V60.3131C40.3603 61.2192 41.0948 61.9537 42.0009 61.9537C42.907 61.9537 43.6416 61.2192 43.6416 60.3131V55.6168H61.3602V59.2262C61.3602 63.0257 64.4513 66.1168 68.2508 66.1168C72.0503 66.1168 75.1414 63.0257 75.1414 59.2262V55.6168H82.3602C83.2663 55.6168 84.0008 54.8823 84.0008 53.9762V37.406C84.0005 34.3743 82.7074 31.6402 80.6456 29.7216ZM75.9762 21.2621C77.0157 21.2621 77.8614 22.1078 77.8614 23.1473V26.9061H74.7871L73.4009 21.2621H75.9762ZM16.9344 9.23182C17.7949 5.72809 20.9156 3.28126 24.5233 3.28126H59.4785C63.0863 3.28126 66.2071 5.72825 67.0676 9.23198L71.4085 26.9061H68.0298L63.8808 10.0146C63.3818 7.98198 61.5713 6.56235 59.4784 6.56235H24.5231C22.4302 6.56235 20.6198 7.98182 20.1207 10.0144L15.9722 26.906H12.5935L16.9344 9.23182ZM37.783 17.0351C37.1424 16.3945 36.1035 16.3945 35.4627 17.0351L25.6888 26.809C25.6576 26.8402 25.6291 26.8732 25.601 26.9061H19.3507L23.3071 10.7973C23.4449 10.236 23.945 9.84393 24.523 9.84393H52.4225L42.4265 19.8398C41.7858 20.4805 41.7858 21.5193 42.4265 22.1601C42.7469 22.4805 43.1668 22.6407 43.5866 22.6407C44.0064 22.6407 44.4264 22.4805 44.7467 22.1601L57.063 9.84377H59.4785C60.0565 9.84377 60.5566 10.2359 60.6944 10.7973L64.6508 26.9061H30.2324L37.783 19.3555C38.4239 18.7146 38.4239 17.6758 37.783 17.0351ZM6.14024 23.1473C6.14024 22.1078 6.98598 21.2621 8.02548 21.2621H10.6008L9.21461 26.9061H6.14024V23.1473ZM19.3603 59.2262C19.3603 61.2164 17.7411 62.8356 15.7509 62.8356C13.7606 62.8356 12.1415 61.2164 12.1415 59.2262V55.6168H19.3603V59.2262ZM71.86 59.2262C71.86 61.2164 70.2409 62.8356 68.2506 62.8356C66.2604 62.8356 64.6413 61.2164 64.6413 59.2262V55.6168H71.86V59.2262ZM80.7194 52.3356H3.28226V37.406C3.28226 33.4255 6.52054 30.1872 10.501 30.1872H73.4898C73.4929 30.1872 73.4961 30.1876 73.4993 30.1876C73.501 30.1876 73.5028 30.1872 73.5044 30.1872C77.4831 30.1894 80.7194 33.4267 80.7194 37.4058V52.3356Z" fill="black"/>
<path d="M55.125 34.8936H28.8751C27.9689 34.8936 27.2344 35.6281 27.2344 36.5342V44.4092C27.2344 45.3153 27.9689 46.0498 28.8751 46.0498H55.125C56.0311 46.0498 56.7656 45.3153 56.7656 44.4092V36.5342C56.7656 35.6281 56.0311 34.8936 55.125 34.8936ZM53.4843 42.7686H30.5157V38.1748H53.4843V42.7686Z" fill="black"/>
<path d="M41.8457 12.9703C41.5405 12.6651 41.1173 12.4912 40.6858 12.4912C40.2543 12.4912 39.831 12.6651 39.5258 12.9703C39.2207 13.2771 39.0451 13.6987 39.0451 14.1318C39.0451 14.5633 39.2207 14.985 39.5258 15.2918C39.831 15.5969 40.2543 15.7708 40.6858 15.7708C41.1173 15.7708 41.5405 15.5969 41.8457 15.2918C42.1509 14.985 42.3264 14.5633 42.3264 14.1318C42.3264 13.6987 42.1509 13.2771 41.8457 12.9703Z" fill="black"/>
<path d="M15.0939 35.0269C11.6563 35.0269 8.85956 37.8236 8.85956 41.2613C8.85956 44.6989 11.6563 47.4956 15.0939 47.4956C18.5316 47.4956 21.3283 44.6989 21.3283 41.2613C21.3283 37.8236 18.5314 35.0269 15.0939 35.0269ZM15.0939 44.2144C13.4656 44.2144 12.1408 42.8896 12.1408 41.2613C12.1408 39.6329 13.4656 38.3081 15.0939 38.3081C16.7223 38.3081 18.0471 39.6329 18.0471 41.2613C18.0471 42.8896 16.7224 44.2144 15.0939 44.2144Z" fill="black"/>
<path d="M68.906 35.0269C65.4684 35.0269 62.6717 37.8236 62.6717 41.2613C62.6717 44.6989 65.4684 47.4956 68.906 47.4956C72.3437 47.4956 75.1404 44.6989 75.1404 41.2613C75.1404 37.8236 72.3437 35.0269 68.906 35.0269ZM68.906 44.2144C67.2777 44.2144 65.9529 42.8896 65.9529 41.2613C65.9529 39.6329 67.2777 38.3081 68.906 38.3081C70.5344 38.3081 71.8592 39.6329 71.8592 41.2613C71.8592 42.8896 70.5345 44.2144 68.906 44.2144Z" fill="black"/>
<path d="M8.08698 69.3911C7.27569 68.9878 6.29099 69.3186 5.88756 70.1298L0.171772 81.6284C-0.231495 82.4396 0.099256 83.4243 0.910547 83.8278C1.14516 83.9444 1.3942 83.9997 1.63948 83.9997C2.24257 83.9997 2.82319 83.6657 3.10981 83.089L8.82576 71.5908C9.22919 70.779 8.89844 69.7943 8.08698 69.3911Z" fill="black"/>
<path d="M83.8281 81.6286L78.1123 70.1304C77.709 69.3191 76.7243 68.9882 75.9128 69.3916C75.1014 69.7951 74.7706 70.7796 75.1741 71.5911L80.89 83.0892C81.1768 83.6661 81.7573 84 82.3604 84C82.6056 84 82.8548 83.9447 83.0893 83.828C83.9007 83.4248 84.2315 82.44 83.8281 81.6286Z" fill="black"/>
<path d="M41.9999 75.9604C41.0938 75.9604 40.3593 76.695 40.3593 77.6011V82.3589C40.3593 83.265 41.0938 83.9995 41.9999 83.9995C42.906 83.9995 43.6405 83.265 43.6405 82.3589V77.6011C43.6405 76.695 42.906 75.9604 41.9999 75.9604Z" fill="black"/>
<path d="M41.9999 65.269C41.0938 65.269 40.3593 66.0036 40.3593 66.9097V70.8605C40.3593 71.7666 41.0938 72.5011 41.9999 72.5011C42.906 72.5011 43.6405 71.7666 43.6405 70.8605V66.9095C43.6405 66.0036 42.906 65.269 41.9999 65.269Z" fill="black"/>
</g>
<defs>
<clipPath id="clip0">
<rect width="84" height="84" fill="white"/>
</clipPath>
</defs>
</svg>
