<svg width="84" height="84" viewBox="0 0 84 84" fill="none" xmlns="http://www.w3.org/2000/svg">
    <path d="M59.7335 6.12396C59.598 6.06943 59.4543 6.03638 59.308 6.02564C57.8903 5.91659 56.0545 5.6613 55.5795 5.4564C54.7831 5.11106 54.0825 4.63849 53.4967 4.05355L50.1127 0.669529C49.9664 0.522469 49.7839 0.418371 49.5847 0.345667C49.512 0.318403 49.4393 0.315098 49.3642 0.300227C49.2724 0.282051 49.1874 0.244873 49.0907 0.244873H37.5399C37.14 0.244873 36.779 0.40763 36.5179 0.669529L33.1339 4.05273C32.3308 4.85495 31.2865 5.44484 30.1101 5.76044C29.7903 5.84553 28.4271 5.96533 27.3556 6.02316C27.197 6.03142 27.0425 6.0653 26.8971 6.12396C26.5666 6.25532 18.8261 9.56912 17.3299 29.0116C17.282 29.6403 17.6472 30.2285 18.2338 30.4632L25.4529 33.3507C26.1874 33.6448 27.0334 33.287 27.33 32.5468L27.7571 31.4761C27.8827 37.2296 27.696 45.8276 26.0221 53.3541C23.1346 66.354 23.1008 81.8895 23.1008 82.5446C23.1008 83.3419 23.7468 83.9879 24.5449 83.9879H40.4274C41.2255 83.9879 41.8707 83.3419 41.8707 82.5446V63.7747C41.8707 62.9782 42.5184 62.3305 43.3149 62.3305C44.1113 62.3305 44.759 62.9782 44.759 63.7747V82.5446C44.759 83.3419 45.4043 83.9879 46.2024 83.9879H62.0848C62.8829 83.9879 63.529 83.3419 63.529 82.5446C63.529 81.8895 63.4951 66.354 60.6068 53.3541C58.9363 45.835 58.7487 37.2329 58.8726 31.4785L59.2998 32.5468C59.5964 33.287 60.4432 33.6448 61.1768 33.3507L68.396 30.4632C68.9826 30.2285 69.3478 29.6403 69.2998 29.0116C67.8045 9.56912 60.0632 6.25532 59.7335 6.12396ZM43.3157 49.3364C39.3352 49.3364 36.0966 46.0978 36.0966 42.1172V13.3406C38.119 14.2065 40.3125 14.684 42.5936 14.684C45.4101 14.684 48.1265 13.9429 50.5349 12.6276V42.1172C50.5349 46.0978 47.2962 49.3364 43.3157 49.3364ZM47.3888 3.15963C46.7848 4.82603 45.1878 6.02068 43.3157 6.02068C41.4378 6.02068 39.8358 4.81942 39.236 3.14476C43.3653 3.17202 45.8653 3.18441 47.3888 3.15963ZM35.1754 6.09504L36.703 4.56744C37.8175 7.11868 40.3588 8.909 43.3157 8.909C46.2726 8.909 48.8131 7.11785 49.9276 4.56744L51.4552 6.09421C51.87 6.51061 52.326 6.88487 52.8151 7.21699C50.2275 10.1086 46.5122 11.7965 42.5936 11.7965C38.9031 11.7965 35.4678 10.3292 32.905 7.73583C33.7461 7.29548 34.5186 6.75185 35.1754 6.09504ZM38.9841 63.7755V81.1013H26.0081C26.0899 76.9159 26.5228 64.4191 28.8427 53.9812C31.7467 40.9176 30.3744 25.3177 30.315 24.6601C30.2547 23.9958 29.7457 23.4588 29.0856 23.3613C28.4329 23.2696 27.7844 23.634 27.5357 24.2544L25.1852 30.1335L20.2984 28.1788C21.669 13.2233 26.8624 9.46006 27.8183 8.88917C28.3313 8.85778 29.1691 8.79995 29.8779 8.71485C30.8677 9.90207 32.007 10.9084 33.2405 11.7601C33.2339 11.8147 33.2082 11.8618 33.2082 11.9188V42.1172C33.2082 47.2065 36.9938 51.4175 41.8939 52.1123C41.8905 52.1512 41.8715 52.1842 41.8715 52.2239V59.7099C40.1944 60.308 38.9841 61.8951 38.9841 63.7755ZM61.4454 30.1335L59.0949 24.2544C58.8462 23.6332 58.1968 23.2655 57.545 23.3622C56.8849 23.4588 56.3759 23.9958 56.3156 24.6609C56.2561 25.3177 54.8847 40.9176 57.7879 53.9812C60.1086 64.4199 60.5415 76.9159 60.6233 81.1013H47.6465V63.7755C47.6465 61.8959 46.4362 60.308 44.759 59.7099V52.2239C44.759 52.1842 44.7392 52.1512 44.7367 52.1123C49.6368 51.4175 53.4223 47.2065 53.4223 42.1172V10.6291C54.1932 9.96486 54.921 9.24526 55.5654 8.43891C56.6725 8.67767 58.0547 8.81812 58.7925 8.88091C59.7641 9.45841 64.9599 13.22 66.3322 28.1788L61.4454 30.1335Z" fill="black" />
    <path d="M5.77582 0.24585C2.59008 0.24585 7.62939e-06 2.83674 7.62939e-06 6.02083C7.62939e-06 9.20575 2.59008 11.7966 5.77582 11.7966C8.96074 11.7966 11.5508 9.20575 11.5508 6.02083C11.5508 2.83674 8.96074 0.24585 5.77582 0.24585ZM5.77582 8.90915C4.18377 8.90915 2.8875 7.61371 2.8875 6.02083C2.8875 4.42879 4.18377 3.13334 5.77582 3.13334C7.36704 3.13334 8.66331 4.42879 8.66331 6.02083C8.66331 7.61371 7.36704 8.90915 5.77582 8.90915Z" fill="black" />
    <path d="M79.4114 62.0737C76.8825 62.0737 74.8236 64.1326 74.8236 66.6631C74.8236 69.1929 76.8825 71.2517 79.4114 71.2517C81.9412 71.2517 84 69.1929 84 66.6631C84 64.1326 81.9412 62.0737 79.4114 62.0737ZM79.4114 68.3642C78.4737 68.3642 77.7111 67.6017 77.7111 66.6631C77.7111 65.7246 78.4737 64.962 79.4114 64.962C80.3499 64.962 81.1125 65.7246 81.1125 66.6631C81.1125 67.6017 80.3491 68.3642 79.4114 68.3642Z" fill="black" />
    <path d="M18.1156 52.2239C18.1156 53.4574 17.1159 54.4579 15.8825 54.4579C14.649 54.4579 13.6493 53.4574 13.6493 52.2239C13.6493 50.9912 14.649 49.9907 15.8825 49.9907C17.1159 49.9907 18.1156 50.9912 18.1156 52.2239Z" fill="black" />
    <path d="M80.2012 42.1174C80.2012 43.3509 79.2016 44.3506 77.9681 44.3506C76.7346 44.3506 75.7349 43.3509 75.7349 42.1174C75.7349 40.884 76.7346 39.8843 77.9681 39.8843C79.2016 39.8843 80.2012 40.884 80.2012 42.1174Z" fill="black" />
    <path d="M7.90405 68.1435C7.3406 67.5801 6.42685 67.5801 5.86257 68.1435L4.33166 69.6744L2.80075 68.1435C2.23647 67.5801 1.32272 67.5801 0.758438 68.1435C0.194984 68.707 0.194984 69.6216 0.758438 70.185L2.28935 71.7159L0.758438 73.2477C0.194158 73.8111 0.194158 74.7257 0.758438 75.2891C1.04016 75.5709 1.41029 75.7122 1.77959 75.7122C2.14807 75.7122 2.5182 75.5709 2.79992 75.2891L4.33083 73.7582L5.86257 75.2891C6.14429 75.5709 6.51359 75.7122 6.8829 75.7122C7.2522 75.7122 7.62233 75.5709 7.90405 75.2891C8.46751 74.7257 8.46751 73.8111 7.90405 73.2477L6.37314 71.7159L7.90405 70.185C8.46833 69.6207 8.46833 68.707 7.90405 68.1435Z" fill="black" />
    <path d="M76.5239 7.34101L78.0557 8.87192C78.3374 9.15364 78.7067 9.29492 79.076 9.29492C79.4453 9.29492 79.8146 9.15364 80.0971 8.87192C80.6606 8.30846 80.6606 7.39388 80.0971 6.83043L78.5654 5.29952L80.0971 3.76779C80.6606 3.20433 80.6606 2.29058 80.0971 1.7263C79.5329 1.16285 78.6191 1.16285 78.0557 1.7263L76.5239 3.25721L74.993 1.7263C74.4287 1.16285 73.515 1.16285 72.9515 1.7263C72.3873 2.29058 72.3873 3.20433 72.9515 3.76779L74.4824 5.29952L72.9507 6.83043C72.3873 7.39388 72.3873 8.30846 72.9507 8.87192C73.2324 9.15364 73.6026 9.29492 73.9719 9.29492C74.3412 9.29492 74.7105 9.15364 74.9922 8.87192L76.5239 7.34101Z" fill="black" />
</svg>
