<svg width="27" height="27" viewBox="0 0 27 27" fill="none" xmlns="http://www.w3.org/2000/svg">
    <path d="M4.93004 0C2.19901 0 0 2.19901 0 4.93003V22.0699C0 24.801 2.19901 27 4.93004 27H14.2197V16.4447H11.4286V12.6444H14.2197V9.39768C14.2197 6.84686 15.8689 4.50478 19.6678 4.50478C21.206 4.50478 22.3434 4.65244 22.3434 4.65244L22.2539 8.20126C22.2539 8.20126 21.0939 8.1903 19.8281 8.1903C18.4582 8.1903 18.2385 8.8215 18.2385 9.86937V12.6445H22.3628L22.183 16.4447H18.2385V27H22.07C24.801 27 27 24.801 27 22.07V4.93006C27 2.19904 24.801 2.69999e-05 22.07 2.69999e-05H4.93001L4.93004 0Z" fill="white" />
</svg>
