<svg width="28" height="27" viewBox="0 0 28 27" fill="none" xmlns="http://www.w3.org/2000/svg">
    <path d="M13.9962 6.57319C10.0211 6.57319 6.81302 9.66679 6.81302 13.5C6.81302 17.3332 10.0211 20.4268 13.9962 20.4268C17.9713 20.4268 21.1795 17.3332 21.1795 13.5C21.1795 9.66679 17.9713 6.57319 13.9962 6.57319ZM13.9962 18.0019C11.4255 18.0019 9.32767 15.9789 9.32767 13.5C9.32767 11.0211 11.4255 8.99808 13.9962 8.99808C16.5669 8.99808 18.6648 11.0211 18.6648 13.5C18.6648 15.9789 16.5669 18.0019 13.9962 18.0019ZM21.4736 4.67516C20.5455 4.67516 19.796 5.3979 19.796 6.29288C19.796 7.18786 20.5455 7.9106 21.4736 7.9106C22.4018 7.9106 23.1513 7.19124 23.1513 6.29288C23.1515 6.08036 23.1083 5.86988 23.0241 5.67349C22.9399 5.4771 22.8163 5.29866 22.6605 5.14839C22.5047 4.99811 22.3196 4.87896 22.116 4.79776C21.9123 4.71656 21.694 4.6749 21.4736 4.67516ZM27.9984 13.5C27.9984 11.6357 28.0159 9.78837 27.9074 7.92748C27.7988 5.76602 27.2875 3.84773 25.6484 2.26716C24.0058 0.683215 22.02 0.19351 19.7785 0.0888138C17.8453 -0.0158819 15.9295 0.00100455 13.9997 0.00100455C12.0665 0.00100455 10.1507 -0.0158819 8.22094 0.0888138C5.97947 0.19351 3.99016 0.686593 2.35109 2.26716C0.708507 3.85111 0.200673 5.76602 0.0921015 7.92748C-0.0164698 9.79174 0.00104174 11.6391 0.00104174 13.5C0.00104174 15.3609 -0.0164698 17.2116 0.0921015 19.0725C0.200673 21.234 0.712009 23.1523 2.35109 24.7328C3.99367 26.3168 5.97947 26.8065 8.22094 26.9112C10.1542 27.0159 12.07 26.999 13.9997 26.999C15.933 26.999 17.8488 27.0159 19.7785 26.9112C22.02 26.8065 24.0093 26.3134 25.6484 24.7328C27.291 23.1489 27.7988 21.234 27.9074 19.0725C28.0195 17.2116 27.9984 15.3643 27.9984 13.5ZM24.9164 21.4636C24.6607 22.0783 24.3525 22.5376 23.8587 23.0104C23.3649 23.4866 22.8921 23.7838 22.2547 24.0304C20.4125 24.7362 16.0381 24.5775 13.9962 24.5775C11.9544 24.5775 7.57652 24.7362 5.73431 24.0337C5.09689 23.7872 4.62058 23.49 4.13025 23.0138C3.63643 22.5376 3.32823 22.0817 3.07256 21.467C2.34408 19.6872 2.50869 15.469 2.50869 13.5C2.50869 11.531 2.34408 7.30944 3.07256 5.53299C3.32823 4.91833 3.63643 4.45902 4.13025 3.9862C4.62408 3.51338 5.09689 3.2128 5.73431 2.96626C7.57652 2.26378 11.9544 2.42252 13.9962 2.42252C16.0381 2.42252 20.416 2.26378 22.2582 2.96626C22.8956 3.2128 23.3719 3.51 23.8622 3.9862C24.356 4.46239 24.6642 4.91833 24.9199 5.53299C25.6484 7.30944 25.4838 11.531 25.4838 13.5C25.4838 15.469 25.6484 19.6872 24.9164 21.4636Z" fill="white" />
</svg>
