<svg width="84" height="84" viewBox="0 0 84 84" fill="none" xmlns="http://www.w3.org/2000/svg">
    <g clip-path="url(#clip0)">
        <path d="M83.2794 72.8371L75.0428 64.6005C72.7264 62.284 69.3256 61.87 66.6383 63.1565L58.7902 55.3085C69.3412 44.0686 75.55 30.8647 78.941 21.5532C81.4375 14.698 83.8737 5.14199 83.9948 2.57671C84.0689 1.01615 82.699 -0.191349 81.197 0.0239013C80.8697 0.0698388 73.0579 1.19482 62.4465 5.05898C53.1348 8.44982 39.9304 14.6583 28.6903 25.2086L20.8391 17.3574C22.1461 14.6137 21.6667 11.2246 19.3983 8.95596L11.1615 0.719526C10.2007 -0.241388 8.64232 -0.241552 7.68124 0.719526L0.720563 7.68021C-0.239859 8.64046 -0.240516 10.1995 0.720563 11.1605L8.95716 19.3971C11.2736 21.7136 14.6744 22.1276 17.3617 20.8411L25.2097 28.6891C14.659 39.9288 8.4502 53.1329 5.05903 62.4444C2.17268 70.3696 0.380953 78.2712 0.0201797 81.2381C-0.173906 82.8246 1.1824 84.2019 2.80301 83.9737C3.13031 83.9278 10.9421 82.8028 21.5535 78.9386C30.8652 75.5478 44.0696 69.3393 55.3097 58.789L63.1609 66.6402C61.8539 69.3839 62.3333 72.773 64.6017 75.0415L72.8383 83.2782C73.7993 84.2393 75.3575 84.2393 76.3186 83.2782L83.2793 76.3177C84.2399 75.3571 84.2405 73.798 83.2794 72.8371ZM16.0929 15.7217L15.7231 16.0915C14.771 16.8628 13.3496 16.8288 12.4377 15.917L5.94103 9.42025L9.42145 5.94L15.918 12.4365C16.8149 13.3335 16.8728 14.7562 16.0929 15.7217ZM73.8895 6.62922L53.9134 26.6051C49.0941 24.0819 41.589 26.0395 35.1041 31.6227L32.172 28.6905C43.6119 17.9966 58.8594 10.5808 73.8895 6.62922ZM38.5959 35.1144C43.3935 31.0918 49.4187 29.1752 52.1528 31.3042C52.3202 31.5337 52.4674 31.6794 52.6893 31.842C53.6634 33.0833 53.8394 35.1722 53.161 37.6597C52.4719 40.1861 50.9498 42.9172 48.8808 45.399L38.5959 35.1144ZM45.4043 48.8834C39.9655 53.4436 34.2612 54.5791 31.8432 52.688C31.679 52.464 31.5348 52.3198 31.3107 52.1554C30.3366 50.9141 30.1606 48.8253 30.839 46.3378C31.5281 43.8114 33.0502 41.0802 35.1192 38.5984L45.4043 48.8834ZM28.6916 32.1706L31.6263 35.1054C27.333 40.0988 23.518 48.0967 26.6016 53.9168L6.62813 73.8903C10.5789 58.8621 17.9952 43.6125 28.6916 32.1706ZM10.1105 77.3684L30.0881 57.3908C35.8834 60.4251 43.85 56.7177 48.8954 52.3743L51.8282 55.3069C40.3856 66.0034 25.1363 73.4178 10.1105 77.3684ZM55.3084 51.827L52.3737 48.8922C56.667 43.8988 60.4821 35.9009 57.3984 30.0808L77.3719 10.1073C73.4212 25.1353 66.005 40.3849 55.3084 51.827ZM74.5785 78.0576L68.082 71.5611C67.1849 70.6641 67.127 69.2414 67.9071 68.2759L68.2769 67.9061C69.229 67.1348 70.6504 67.1688 71.5623 68.0806L78.059 74.5772L74.5785 78.0576Z" fill="black" />
    </g>
    <defs>
        <clipPath id="clip0">
            <rect width="84" height="84" fill="white" />
        </clipPath>
    </defs>
</svg>
