<svg width="84" height="84" viewBox="0 0 84 84" fill="none" xmlns="http://www.w3.org/2000/svg">
    <g clip-path="url(#clip0)">
        <path d="M70.0303 38.8434C94.7347 8.14074 82.3615 -7.21077 61.2935 3.2958C35.1189 15.6526 -6.84854 63.9457 1.00423 79.4312C8.06324 92.8983 35.124 72.0959 42.1724 66.5418C51.3256 59.3425 62.9152 47.9982 70.0303 38.8434ZM58.4763 10.4197C88.3815 -6.6691 79.8567 19.3468 66.9492 34.8173H49.3071V16.7604C52.477 14.318 55.5658 12.1737 58.4763 10.4197ZM40.5205 61.5628C30.6727 69.4259 21.6437 75.7403 12.2039 78.4752C-6.28457 83.321 14.714 50.7538 25.4882 39.3827V56.1648C25.4882 57.5208 26.5883 58.6202 27.9452 58.6202H44.0273C42.8701 59.6157 41.7007 60.5982 40.5205 61.5628ZM49.508 53.7095H30.4021V33.9872C34.9393 29.2021 39.7005 24.6962 44.3933 20.7314V37.2725C44.3933 38.6284 45.4934 39.7278 46.8503 39.7278H62.948C58.9557 44.4058 54.3994 49.1489 49.508 53.7095Z" fill="black" />
        <path d="M83.2141 44.9624C82.2548 44.0034 80.6991 44.0034 79.7395 44.9624L63.8647 60.8262C57.5983 58.502 55.9506 61.7875 50.5588 67.005C45.361 71.8666 41.8419 75.4646 46.1503 81.3351C53.1901 87.8305 57.8005 80.8534 61.5254 77.3063C66.5388 72.2198 69.6996 70.3517 67.3527 64.2849C82.7226 48.5478 85.6072 47.7245 83.2141 44.9624ZM62.4473 69.4408C61.9722 69.7783 53.1906 79.0335 52.7432 78.818C50.3134 79.7856 48.2555 76.9071 49.6719 74.8918C49.774 74.625 55.3722 69.1874 57.8446 66.6685C61.1122 62.5811 64.8161 66.9507 62.4473 69.4408Z" fill="black" />
    </g>
    <defs>
        <clipPath id="clip0">
            <rect width="84" height="84" fill="white" />
        </clipPath>
    </defs>
</svg>
