<svg width="84" height="84" viewBox="0 0 84 84" fill="none" xmlns="http://www.w3.org/2000/svg">
    <g clip-path="url(#clip0)">
        <path d="M24.9702 69.8756C24.6534 69.8756 24.3326 69.797 24.0364 69.6312C23.1142 69.1145 22.7851 67.948 23.3018 67.0257C25.801 62.5632 31.3172 59.0675 35.8601 59.0675H64.6305C67.6906 59.0675 72.2518 56.5629 73.7757 53.2106L77.994 43.9324C78.4316 42.9699 79.5671 42.5449 80.5288 42.982C81.4911 43.4196 81.9167 44.5545 81.4793 45.5168L77.261 54.7949C75.7949 58.0198 72.5998 60.5404 69.3526 61.8656C69.5176 62.1485 69.6122 62.4776 69.6122 62.8287V67.9608C69.6122 69.0181 68.755 69.8751 67.6979 69.8751C66.6409 69.8751 65.7837 69.0181 65.7837 67.9608V62.8287C65.7837 62.8271 65.7837 62.8258 65.7837 62.8243C65.3885 62.8715 65.0026 62.8959 64.6303 62.8959H40.288V67.9608C40.288 69.0181 39.4308 69.8751 38.3737 69.8751C37.3166 69.8751 36.4594 69.0181 36.4594 67.9608V62.8959H35.8603C32.7398 62.8959 28.4322 65.6997 26.6421 68.8963C26.2914 69.5228 25.6404 69.8755 24.9702 69.8756ZM15.9942 69.7535C15.9156 69.7535 15.8361 69.7487 15.7559 69.7388C6.77362 68.6235 0 60.9575 0 51.9066C0 41.9986 8.06039 33.938 17.968 33.938H53.3015C54.3586 33.938 55.2158 34.795 55.2158 35.8523C55.2158 36.9095 54.3586 37.7665 53.3015 37.7665H17.968C10.1716 37.7665 3.82853 44.1098 3.82853 51.9066C3.82853 59.029 9.15898 65.0617 16.2276 65.9393C17.2766 66.0697 18.0216 67.0257 17.8913 68.0749C17.7711 69.0441 16.946 69.7535 15.9942 69.7535ZM54.8798 69.5435C54.7742 69.5435 54.6675 69.5349 54.5598 69.5167C53.5172 69.3412 52.8143 68.3538 52.9899 67.3113L53.263 65.689C53.4386 64.6464 54.4254 63.9433 55.4685 64.1191C56.511 64.2946 57.2139 65.282 57.0383 66.3245L56.7652 67.9468C56.608 68.8818 55.7973 69.5435 54.8798 69.5435ZM56.1488 57.1686C56.0422 57.1686 55.9342 57.1598 55.8257 57.1412C54.7835 56.9639 54.0823 55.9754 54.2594 54.9331L58.6006 29.4083L39.8842 26.2492C39.3837 26.1648 38.9371 25.8847 38.6428 25.471C38.3486 25.0572 38.2309 24.5436 38.3153 24.043L38.9857 20.0734C39.1406 19.1566 39.9313 18.4838 40.8611 18.4779C49.1024 18.4254 56.5948 16.9487 61.9584 14.3199C62.6967 13.9583 63.5824 14.108 64.1609 14.6916C68.3641 18.9348 74.957 22.7888 82.7255 25.5436C83.6018 25.8543 84.128 26.7498 83.9734 27.6665L83.3028 31.6365C83.1269 32.6788 82.1397 33.3812 81.0968 33.2052L62.3759 30.0456L58.0338 55.5749C57.8751 56.5085 57.0649 57.1686 56.1488 57.1686ZM61.1488 25.9557L79.8462 29.1116L79.9329 28.5978C72.7506 25.8809 66.7454 22.3604 62.414 18.3291C56.9987 20.7158 50.1713 22.07 42.4955 22.2794L42.4088 22.7928L61.1062 25.9486C61.114 25.95 61.122 25.9513 61.1299 25.9527C61.1364 25.9534 61.1425 25.9546 61.1488 25.9557ZM36.6398 52.8326C34.7466 52.8326 32.8396 52.0671 31.455 50.7326C30.6872 49.9926 29.5991 49.5772 28.6144 49.648C27.9056 49.6993 27.3447 49.9845 26.9475 50.496C26.9473 50.4964 26.9469 50.4968 26.9465 50.4972C25.8881 51.8613 24.3098 52.6844 22.5025 52.8146C20.4528 52.9635 18.3258 52.1844 16.8193 50.7326C16.0519 49.9924 14.9621 49.577 13.9795 49.6478C13.2699 49.6989 12.7086 49.9845 12.3112 50.4968C11.6632 51.3324 10.4609 51.4844 9.62549 50.8362C8.79011 50.1882 8.6383 48.9857 9.28628 48.1505C10.3472 46.7825 11.9161 45.9581 13.7044 45.8292C15.7695 45.6807 17.9278 46.483 19.4765 47.9763C20.2016 48.675 21.2554 49.0657 22.2273 48.996C22.729 48.9598 23.4302 48.7837 23.922 48.1501C23.9229 48.1489 23.9239 48.1476 23.9248 48.1463C24.9857 46.781 26.5529 45.9581 28.3389 45.8292C30.4058 45.6807 32.5628 46.4826 34.112 47.9759C34.8379 48.6752 35.8915 49.0651 36.8632 48.996C37.3639 48.9598 38.0638 48.7841 38.5552 48.1526C38.5558 48.1518 38.5563 48.151 38.5569 48.1505C39.6178 46.7825 41.1867 45.9583 42.9746 45.8294C45.0415 45.6809 47.1986 46.4831 48.7477 47.9761C49.5088 48.7098 49.531 49.9217 48.7972 50.6829C48.0637 51.4443 46.8518 51.4662 46.0905 50.7326C45.3229 49.9926 44.234 49.577 43.2499 49.648C42.5405 49.6993 41.979 49.9849 41.5818 50.497C41.5803 50.4989 41.5788 50.5008 41.5774 50.5027C40.5194 51.8634 38.9432 52.6844 37.1386 52.8148C36.9728 52.8266 36.8061 52.8326 36.6398 52.8326ZM74.7277 40.2807C74.3751 40.2807 74.0184 40.1835 73.6991 39.9794C71.4323 38.5317 68.8155 37.7665 66.1315 37.7665C65.0744 37.7665 64.2172 36.9095 64.2172 35.8523C64.2172 34.795 65.0744 33.938 66.1315 33.938C69.5471 33.938 72.8764 34.9114 75.76 36.7529C76.6509 37.3219 76.912 38.5055 76.3429 39.3965C75.9777 39.9683 75.3594 40.2807 74.7277 40.2807Z" fill="black" />
    </g>
    <defs>
        <clipPath id="clip0">
            <rect width="84" height="84" fill="white" />
        </clipPath>
    </defs>
</svg>
