<svg width="84" height="84" viewBox="0 0 84 84" fill="none" xmlns="http://www.w3.org/2000/svg">
    <path d="M82.361 62.651H64.9189C65.1008 62.138 65.2007 61.5867 65.2007 61.012V59.373H73.2949C79.1511 59.373 83.9155 54.6088 83.9155 48.7525C83.9155 45.9157 82.8109 43.2485 80.8049 41.2425L79.748 40.1856L70.5698 31.0075C70.5697 31.0073 70.5695 31.0071 70.5692 31.007L65.8932 26.331C60.567 21.0047 53.4854 18.0713 45.9526 18.0713H1.63963C0.734493 18.0713 0.000640869 18.8051 0.000640869 19.7103C0.000640869 20.6152 0.734329 21.3493 1.63963 21.3493H45.9526C52.6096 21.3493 58.8681 23.9416 63.5752 28.6489L65.4537 30.5274H46.568C43.1338 30.5274 40.34 33.3214 40.34 36.7554C40.34 40.1894 43.134 42.9834 46.568 42.9834H77.91L78.487 43.5604C79.8737 44.9472 80.6377 46.7911 80.6377 48.7525C80.6377 52.8012 77.3437 56.0952 73.2949 56.0952H63.5618H57.006H17.1304H10.5746H1.63963C0.734493 56.0952 0.000640869 56.8291 0.000640869 57.7342C0.000640869 58.6392 0.734329 59.3732 1.63963 59.3732H8.93565V61.0122C8.93565 61.5867 9.03556 62.1381 9.21751 62.6512H1.72412C0.818985 62.6512 0.0851331 63.385 0.0851331 64.2902C0.0851331 65.1951 0.818821 65.9291 1.72412 65.9291H29.2587C30.1639 65.9291 30.8977 65.1953 30.8977 64.2902C30.8977 63.3852 30.164 62.6512 29.2587 62.6512H18.4875C18.6695 62.1381 18.7694 61.5869 18.7694 61.0122V59.3732H55.367V61.0122C55.367 61.5867 55.4669 62.1381 55.6488 62.6512H42.0499C41.1447 62.6512 40.4109 63.385 40.4109 64.2902C40.4109 65.1951 41.1446 65.9291 42.0499 65.9291H82.361C83.2662 65.9291 84 65.1953 84 64.2902C84 63.385 83.2663 62.651 82.361 62.651ZM46.568 39.7056C44.9413 39.7056 43.6178 38.3821 43.6178 36.7554C43.6178 35.1287 44.9413 33.8052 46.568 33.8052H68.7319L74.632 39.7054H46.568V39.7056ZM15.4914 61.012C15.4914 61.9157 14.7563 62.651 13.8524 62.651C12.9488 62.651 12.2135 61.9158 12.2135 61.012V59.373H15.4914V61.012ZM61.9229 61.012C61.9229 61.9157 61.1878 62.651 60.2839 62.651C59.3803 62.651 58.645 61.9158 58.645 61.012V59.373H61.9229V61.012Z" fill="black" />
    <path d="M36.8094 63.1311C36.5046 62.8263 36.0818 62.6509 35.6506 62.6509C35.2196 62.6509 34.7967 62.8261 34.4918 63.1311C34.187 63.4359 34.0116 63.8587 34.0116 64.2899C34.0116 64.721 34.187 65.1438 34.4918 65.4485C34.7967 65.7533 35.2195 65.9288 35.6506 65.9288C36.0816 65.9288 36.5046 65.7535 36.8094 65.4485C37.1142 65.1438 37.2896 64.7209 37.2896 64.2899C37.2896 63.8589 37.1142 63.4359 36.8094 63.1311Z" fill="black" />
    <path d="M27.2075 30.5273H7.89763C6.99249 30.5273 6.25864 31.2612 6.25864 32.1663C6.25864 33.0713 6.99233 33.8053 7.89763 33.8053H27.2075C28.8341 33.8053 30.1576 35.1288 30.1576 36.7555C30.1576 38.3822 28.8341 39.7056 27.2073 39.7056H1.63963C0.734493 39.7056 0.000640869 40.4395 0.000640869 41.3446C0.000640869 42.2498 0.734329 42.9836 1.63963 42.9836H27.2075C30.6416 42.9836 33.4354 40.1896 33.4354 36.7556C33.4354 33.3217 30.6414 30.5273 27.2075 30.5273Z" fill="black" />
    <path d="M2.79776 31.0076C2.49293 30.7026 2.07178 30.5273 1.63898 30.5273C1.20799 30.5273 0.785039 30.7026 0.480211 31.0076C0.175383 31.3124 0 31.7352 0 32.1662C0 32.5972 0.175383 33.0201 0.480211 33.3248C0.785039 33.6296 1.20799 33.8051 1.63898 33.8051C2.07162 33.8051 2.49293 33.6298 2.79776 33.3248C3.10423 33.0201 3.27797 32.5972 3.27797 32.1662C3.27797 31.7352 3.10423 31.3124 2.79776 31.0076Z" fill="black" />
</svg>
