<svg width="84" height="84" viewBox="0 0 84 84" fill="none" xmlns="http://www.w3.org/2000/svg">
    <g clip-path="url(#clip0)">
        <path d="M25.0676 48.3857C25.258 48.492 25.4643 48.5427 25.6675 48.5427C26.0994 48.5427 26.5185 48.3152 26.7441 47.9114C34.0975 34.7531 37.6453 22.4279 37.2896 11.2876L37.1608 5.95945C37.1442 5.27949 36.5834 4.74757 35.9002 4.75847C35.2196 4.77513 34.6819 5.33909 34.6986 6.0197L34.8274 11.3569C35.169 22.053 31.7256 33.9475 24.594 46.7098C24.262 47.3039 24.4742 48.0537 25.0676 48.3857Z" fill="black" />
        <path d="M83.8853 5.93077C83.8526 5.25081 83.2746 4.72658 82.5959 4.75926C81.9166 4.79195 81.3923 5.36937 81.425 6.04869C82.8715 36.2657 69.9701 57.1612 61.6689 67.3479C60.8666 66.9832 59.977 66.7781 59.0401 66.7781H13.8864C16.5383 63.4943 19.6971 59.2934 22.8047 54.4638C23.1726 53.8922 23.0072 53.1295 22.4349 52.7617C21.8633 52.3938 21.1006 52.5591 20.7328 53.1314C17.1625 58.6801 13.5275 63.3802 10.7032 66.7781H6.36704C2.85635 66.7781 0 69.6338 0 73.1452C0 76.6558 2.85635 79.5122 6.36704 79.5122H59.0407C62.5514 79.5122 65.4078 76.6558 65.4078 73.1452C65.4078 71.4597 64.7477 69.9254 63.6749 68.7853C72.2112 58.2706 85.3651 36.8418 83.8853 5.93077ZM6.36704 77.0493C4.21436 77.0493 2.46286 75.2978 2.46286 73.1452C2.46286 70.9925 4.21436 69.241 6.36704 69.241C6.74643 69.241 7.11301 69.2967 7.46036 69.398C7.50714 69.4743 7.55393 69.5512 7.59879 69.6281V69.4409C7.80835 69.5108 8.00894 69.5992 8.20056 69.7024C6.54712 71.5776 5.51789 72.6273 5.49033 72.6555C5.01288 73.14 5.01801 73.9193 5.5025 74.3968C5.74219 74.6333 6.05493 74.7518 6.36704 74.7518C6.68491 74.7518 7.00278 74.6294 7.24375 74.3852C7.27194 74.357 8.27811 73.331 9.90207 71.4956C10.1373 71.9974 10.2712 72.5556 10.2712 73.1452C10.2712 75.2978 8.51972 77.0493 6.36704 77.0493ZM21.8671 75.9047C21.1295 76.6424 20.1489 77.0493 19.1062 77.0493C19.1037 77.0493 19.1018 77.0493 19.0998 77.0493H11.3915C12.2323 75.9701 12.7341 74.616 12.7341 73.1452C12.7341 71.8038 12.3156 70.5599 11.6042 69.5326C11.6856 69.4364 11.7676 69.3397 11.851 69.241H19.0928C19.0973 69.241 19.1011 69.2416 19.1056 69.2416C21.2589 69.2416 23.0111 70.9931 23.0111 73.1452C23.0111 74.1885 22.6054 75.1677 21.8671 75.9047ZM43.0555 75.9047C42.3179 76.6424 41.3374 77.0493 40.2947 77.0493C40.2921 77.0493 40.2902 77.0493 40.2883 77.0493H31.7019C31.8012 76.9218 31.8967 76.7917 31.9858 76.6578C32.3613 76.0906 32.2062 75.326 31.6391 74.9505C31.0719 74.5749 30.308 74.73 29.9324 75.2972C29.7876 75.5151 29.6203 75.7195 29.4358 75.9047C28.6981 76.6424 27.7176 77.0487 26.6749 77.0487H24.1377C25.0048 75.9374 25.4746 74.5781 25.4746 73.1452C25.4746 71.6756 24.9734 70.3202 24.1339 69.2416H26.6749C27.8157 69.2416 28.8962 69.7389 29.6396 70.6054C30.0824 71.1213 30.8598 71.1815 31.3763 70.7387C31.8179 70.3599 31.9236 69.7364 31.6686 69.241H40.2818C40.2863 69.241 40.2902 69.2416 40.2947 69.2416C42.448 69.2416 44.2001 70.9931 44.2001 73.1452C44.1995 74.1885 43.7938 75.1677 43.0555 75.9047ZM50.6242 75.9047C49.8866 76.6424 48.906 77.0493 47.8633 77.0493H45.3261C46.1932 75.9381 46.663 74.5781 46.663 73.1452C46.663 71.6756 46.1625 70.3208 45.3223 69.2416H47.8633C50.016 69.2416 51.7669 70.9931 51.7669 73.1452C51.7669 74.1879 51.3612 75.1677 50.6242 75.9047ZM59.0407 77.0493H52.8916C53.7587 75.9374 54.2304 74.5781 54.2304 73.1452C54.2304 71.675 53.7279 70.3202 52.8871 69.241H59.0407C61.1934 69.241 62.9449 70.9925 62.9449 73.1452C62.9449 75.2978 61.1934 77.0493 59.0407 77.0493Z" fill="black" />
    </g>
    <defs>
        <clipPath id="clip0">
            <rect width="84" height="84" fill="white" />
        </clipPath>
    </defs>
</svg>
