<svg width="73" height="74" viewBox="0 0 73 74" fill="none" xmlns="http://www.w3.org/2000/svg">
    <path d="M72.9221 11.5904C72.8796 9.02604 71.8879 6.57503 70.1453 4.69074C69.8761 4.43572 69.5077 4.30821 69.1394 4.36488C68.601 3.44398 67.9635 2.59392 67.2551 1.80053C66.5325 0.992977 65.3566 0.766294 64.3791 1.24799C62.3672 2.2539 54.4475 5.55496 36.6388 5.55496C18.8301 5.55496 10.9245 2.2539 8.91271 1.24799C7.93514 0.766294 6.75923 0.992977 6.03668 1.80053C5.3283 2.59392 4.69075 3.45815 4.15238 4.36488C3.78402 4.30821 3.41567 4.43572 3.14648 4.69074C1.41803 6.57503 0.426292 9.02604 0.383789 11.5904C0.383789 11.9871 0.567968 12.3413 0.893824 12.568C0.922159 12.5821 0.97883 12.6246 1.078 12.6955C0.68131 14.7214 0.454627 16.7616 0.412124 18.8159C0.397957 19.2976 0.525466 19.751 0.766316 20.1335L0.49713 58.202C0.426292 58.7829 0.397956 59.3637 0.397956 59.9446V65.9942C0.397956 70.7545 18.6459 73.248 36.6671 73.248C54.6884 73.248 72.9363 70.7545 72.9363 65.9942V59.9446C72.9363 59.4204 72.908 58.9104 72.8513 58.4003L72.5821 20.1051C72.8088 19.7226 72.9363 19.2834 72.9221 18.8159C72.8655 16.7616 72.6388 14.7073 72.2563 12.6955C72.3554 12.6388 72.4121 12.5963 72.4404 12.568C72.738 12.3413 72.9221 11.9729 72.9221 11.5904ZM7.8218 3.40148C10.5562 4.77574 18.8159 7.96346 36.653 7.96346C54.49 7.96346 62.7498 4.77574 65.4841 3.42981C66.065 4.06736 66.575 4.77574 67.0284 5.51246C63.8407 7.12757 55.1276 10.3861 36.6671 10.3861C18.2067 10.3861 9.49359 7.12757 6.30587 5.51246C6.7309 4.76157 7.2551 4.05319 7.8218 3.40148ZM4.26572 7.15591C7.04258 8.79936 15.9399 12.7946 36.653 12.7946C57.3661 12.7946 66.2634 8.79936 69.0544 7.15591C69.8478 8.27515 70.3295 9.56441 70.4853 10.9245C68.2468 12.1429 58.8253 16.4216 36.6671 16.4216C14.5089 16.4216 5.05911 12.1429 2.83479 10.9245C2.97647 9.56441 3.47234 8.27515 4.26572 7.15591ZM5.52665 51.9682C6.51838 50.6648 7.8218 49.6305 9.32357 48.9647C14.764 46.797 20.5585 45.6494 26.4098 45.5786C26.2397 46.5137 26.0131 47.4346 25.7439 48.3413C19.3968 48.8372 11.4487 49.8572 5.52665 51.9682ZM24.8371 50.849C22.3153 56.8561 16.5632 60.8655 10.0603 61.163C7.53845 61.1205 5.05911 60.483 2.83479 59.2787C2.90563 57.947 3.18898 56.6152 3.65652 55.3684C9.02605 52.7049 17.7533 51.444 24.8371 50.849ZM8.37434 46.7403C5.98001 47.8313 3.99654 49.6022 2.65061 51.8124L2.86313 21.2952C8.75687 21.6353 26.9765 23.9304 26.9765 39.3873C26.9765 40.6483 26.9056 41.895 26.7639 43.1418C20.4593 43.1843 14.2256 44.4027 8.37434 46.7403ZM70.4995 65.8808C69.6211 67.1984 59.9304 70.8254 36.653 70.8254C13.3755 70.8254 3.67068 67.2126 2.79229 65.8808V61.9422C5.07328 62.9906 7.53845 63.529 10.0461 63.5574C14.9056 63.5574 24.1146 60.6671 27.7982 49.8714V49.8572C28.3932 48.1004 28.8041 46.3011 29.0449 44.4735C29.2858 42.7876 29.3991 41.0875 29.385 39.3732C29.385 25.2763 15.6565 19.5384 2.80646 18.8726C2.84896 17.1866 3.0048 15.5007 3.28816 13.843C7.42511 15.6848 17.3283 18.8301 36.6388 18.8301C55.9493 18.8301 65.8525 15.6848 69.9894 13.843C70.2728 15.5007 70.4428 17.1866 70.4853 18.8726C57.6353 19.5526 43.9068 25.2905 43.9068 39.3873C43.8926 41.0874 44.006 42.7876 44.2468 44.4594C44.4877 46.3011 44.8985 48.1004 45.4936 49.8572C49.1913 60.6672 58.3861 63.5574 63.2456 63.5574C65.7533 63.529 68.2185 62.9765 70.4995 61.9422V65.8808ZM69.6494 55.3543C70.117 56.6152 70.4003 57.9328 70.4711 59.2787C68.2468 60.483 65.7675 61.1205 63.2456 61.163C56.7427 60.8797 50.9765 56.8561 48.4688 50.849C55.5526 51.444 64.2799 52.7049 69.6494 55.3543ZM47.5621 48.3555C47.2929 47.4487 47.0662 46.5278 46.8962 45.5928C52.7474 45.6636 58.542 46.8112 63.9824 48.9788C65.4841 49.6447 66.7876 50.6648 67.7793 51.9682C61.8572 49.8714 53.9092 48.8372 47.5621 48.3555ZM64.9316 46.7403C59.0804 44.4027 52.8324 43.1843 46.5278 43.1418C46.3861 41.895 46.3153 40.6341 46.3153 39.3873C46.3153 23.9304 64.5491 21.6353 70.4428 21.2952L70.6553 51.8407C69.3236 49.6305 67.3259 47.8313 64.9316 46.7403Z" fill="black" />
</svg>
