<svg width="27" height="27" viewBox="0 0 27 27" fill="none" xmlns="http://www.w3.org/2000/svg">
    <path d="M17.6439 0H9.35605C1.79291 0 0 1.79291 0 9.35605V17.6439C0 25.2071 1.79291 27 9.35605 27H17.6439C25.2071 27 27 25.2071 27 17.6439V9.35605C27 1.79291 25.1894 0 17.6439 0ZM21.7968 19.2605H19.8368C19.0943 19.2605 18.8657 18.6716 17.53 17.3183C16.3699 16.1936 15.8561 16.0443 15.5701 16.0443C15.1659 16.0443 15.0512 16.1582 15.0512 16.7125V18.4835C15.0512 18.9585 14.9018 19.2437 13.6447 19.2437C11.5658 19.2437 9.25902 17.9865 7.64161 15.6443C5.2024 12.2121 4.53501 9.64123 4.53501 9.10968C4.53501 8.82366 4.64892 8.5562 5.19818 8.5562H7.16237C7.65932 8.5562 7.84832 8.78485 8.04153 9.3164C9.01266 12.1201 10.6301 14.5762 11.2975 14.5762C11.5438 14.5762 11.6577 14.4623 11.6577 13.8337V10.938C11.5826 9.60242 10.8798 9.48767 10.8798 9.0135C10.8798 8.78485 11.0688 8.5562 11.3717 8.5562H14.4606C14.8782 8.5562 15.0318 8.78485 15.0318 9.27674V13.1832C15.0318 13.605 15.2208 13.7544 15.3347 13.7544C15.581 13.7544 15.792 13.605 16.2484 13.1477C17.6591 11.5658 18.6699 9.12656 18.6699 9.12656C18.8015 8.84054 19.0302 8.57308 19.5271 8.57308H21.4913C22.0802 8.57308 22.2119 8.87597 22.0802 9.29784C21.8339 10.4402 19.4301 13.8328 19.4301 13.8328C19.2234 14.1754 19.1441 14.3247 19.4301 14.7069C19.641 14.993 20.327 15.5861 20.7834 16.1177C21.6229 17.0711 22.2684 17.8709 22.4405 18.4244C22.6337 18.9737 22.3486 19.2597 21.7942 19.2597L21.7968 19.2605Z" fill="white" />
</svg>
