<svg width="84" height="84" viewBox="0 0 84 84" fill="none" xmlns="http://www.w3.org/2000/svg">
    <path d="M81.5391 64.3132H48.1576C48.1679 64.2968 53.4642 57.7474 56.8242 47.0614C65.1732 45.3248 69.0703 42.9293 69.0703 39.5398C69.0703 36.4888 65.927 34.253 59.2228 32.5666C59.2241 32.4301 59.2266 32.2939 59.2266 32.1569C59.2266 31.0992 59.1878 30.0543 59.1153 29.0247C58.3165 17.6973 53.4107 8.20333 50.6951 3.73344C50.201 2.92019 49.4603 1.75928 48.9044 1.00377C48.2572 0.123577 47.1063 -0.211767 46.106 0.139983L31.3548 5.221C31.3376 5.2269 31.3213 5.23527 31.3043 5.24151C30.618 5.49433 30.0882 6.0441 29.8477 6.69494L20.9872 30.3231C20.987 30.3232 20.987 30.3235 20.9869 30.3239L16.6422 41.9096C15.3118 45.4575 16.8641 49.4107 20.2419 51.0996L43.2023 62.727L42.0213 64.313H2.46094C1.10184 64.313 0 65.4149 0 66.774C0 73.8474 5.55565 80.1703 12.1329 80.5815L66.6497 83.9684C71.0003 84.2396 75.1529 82.6165 78.3927 79.573C81.9563 76.2253 84 71.5602 84 66.7741C84 65.415 82.8982 64.3132 81.5391 64.3132ZM58.8978 37.569C61.8516 38.3782 63.2152 39.1191 63.811 39.5448C63.083 40.0566 61.4142 40.8633 58.2243 41.686C58.4994 40.351 58.729 38.9772 58.8978 37.569ZM45.9311 5.40573C48.6737 9.72812 51.1066 15.0423 52.5901 20.3228L37.2537 8.39462L45.9311 5.40573ZM33.286 11.544L51.1375 25.4284L26.9991 28.3089L33.286 11.544ZM21.2507 43.6379L25.0532 33.4978L54.2443 30.0145C54.4855 34.392 53.9652 38.6389 52.9065 42.7864C46.4166 43.8681 38.2167 44.4616 29.6953 44.4616C26.7857 44.4616 23.9062 44.3921 21.1073 44.2567C21.1283 44.0495 21.1744 43.8416 21.2507 43.6379ZM27.7248 49.372C28.3802 49.3789 29.0368 49.3835 29.6953 49.3835C37.5149 49.3835 44.9833 48.9051 51.2736 48.0174C49.8894 51.7742 48.0477 55.5104 46.0789 58.6668L27.7248 49.372ZM75.0227 75.9859C72.7222 78.1469 69.858 79.2378 66.9557 79.056C66.9554 79.056 66.9551 79.056 66.9547 79.056L12.4389 75.6693C9.18356 75.4658 6.25341 72.6648 5.271 69.2187C7.25287 69.2187 76.5379 69.2187 78.825 69.2187C78.3005 71.7572 76.9778 74.1491 75.0227 75.9859Z" fill="black" />
</svg>
