<svg width="30" height="29" viewBox="0 0 30 29" fill="none" xmlns="http://www.w3.org/2000/svg">
    <path d="M14.881 10.8749C15.2435 10.8749 15.4248 10.5124 15.4248 9.96865V7.43115C15.4248 6.8874 15.2435 6.5249 14.881 6.5249C14.5185 6.5249 14.3373 6.8874 14.3373 7.43115V9.96865C14.3373 10.5124 14.5185 10.8749 14.881 10.8749Z" fill="white" />
    <path d="M13.431 21.5684C13.2498 21.9309 12.8873 22.1121 12.706 22.1121C12.5248 22.1121 12.5248 22.1121 12.5248 21.9309V17.0371H11.4373V21.7496C11.4373 22.1121 11.4373 22.4746 11.6185 22.6558C11.7998 23.0183 11.981 23.0183 12.3435 23.0183C12.706 23.0183 13.0685 22.8371 13.6123 22.2934V23.0183H14.6997V17.0371H13.431V21.5684Z" fill="white" />
    <path d="M7.44971 16.1311H8.71845V23.0185H9.9872V16.1311H11.2559V14.8623H7.44971V16.1311Z" fill="white" />
    <path d="M17.5997 16.8561C17.2372 16.8561 16.8747 17.2186 16.5122 17.581V14.8623H15.4247V22.8373H16.5122V22.2935C16.8747 22.656 17.2372 23.0185 17.5997 23.0185C17.9622 23.0185 18.3247 22.8373 18.5059 22.2935C18.5059 22.1123 18.6872 21.5685 18.6872 21.0248V18.6685C18.6872 18.1248 18.6872 17.7623 18.5059 17.3998C18.3247 17.2186 18.1434 16.8561 17.5997 16.8561ZM17.5997 21.206C17.5997 21.7498 17.4184 21.931 17.0559 21.931C16.8747 21.931 16.6934 21.931 16.5122 21.7498V18.1248C16.6934 17.9435 16.8747 17.9435 17.0559 17.9435C17.4184 17.9435 17.5997 18.306 17.5997 18.8498V21.206Z" fill="white" />
    <path d="M21.0435 16.8564C20.4997 16.8564 20.1372 17.0377 19.7747 17.4002C19.5935 17.7627 19.4122 18.1252 19.4122 18.8502V21.0252C19.4122 21.7502 19.5935 22.1127 19.7747 22.4752C20.1372 22.8377 20.4997 23.0189 21.0435 23.0189C21.5872 23.0189 22.131 22.8377 22.3122 22.2939C22.4935 22.1127 22.4935 21.9314 22.4935 21.5689V20.6627H21.406V21.3877C21.406 21.7502 21.2247 21.7502 20.8622 21.7502C20.4997 21.7502 20.3185 21.3877 20.3185 20.8439V19.7564H22.4935V18.4877C22.4935 17.7627 22.3122 17.4002 22.131 17.0377C22.131 17.2189 21.5872 16.8564 21.0435 16.8564ZM21.5872 19.2127H20.4997V18.6689C20.4997 18.1252 20.681 17.7627 21.0435 17.7627C21.406 17.7627 21.5872 18.1252 21.5872 18.6689V19.2127Z" fill="white" />
    <path d="M0.562256 0V28.9999H29.5622V0H0.562256ZM17.4185 5.61874H18.506V10.5125C18.506 10.6937 18.506 10.875 18.6872 10.875C18.8685 10.875 19.0497 10.6937 19.4122 10.3312V5.61874H20.4997V11.6H19.4122V11.0562C19.0497 11.6 18.506 11.7812 18.1435 11.7812C17.781 11.7812 17.5997 11.6 17.4185 11.4187C17.4185 11.2375 17.2372 10.875 17.2372 10.5125V5.61874H17.4185ZM13.2497 7.61248C13.2497 7.06874 13.2497 6.52499 13.6122 6.16249C13.9747 5.79999 14.3372 5.61874 14.881 5.61874C15.4247 5.61874 15.7872 5.79999 16.1497 6.16249C16.331 6.52499 16.5122 6.88749 16.5122 7.61248V9.78748C16.5122 10.5125 16.331 10.875 16.1497 11.2375C15.7872 11.6 15.4247 11.7812 14.881 11.7812C14.3372 11.7812 13.9747 11.6 13.6122 11.2375C13.2497 10.875 13.2497 10.5125 13.2497 9.78748V7.61248ZM10.1685 3.62499L11.0747 6.88749L11.981 3.62499H13.2497L11.7997 8.51873V11.7812H10.531V8.51873C10.3497 7.79373 10.1685 7.06874 9.80599 5.79999C9.44349 5.07499 9.26224 4.34999 8.89974 3.62499H10.1685ZM23.7622 23.3812C23.581 24.2875 22.6747 25.0125 21.7685 25.1937C19.5935 25.375 17.2372 25.375 15.0622 25.375C12.8872 25.375 10.531 25.375 8.35599 25.1937C7.44974 25.0125 6.54349 24.4687 6.36225 23.3812C5.99975 21.9312 5.99975 20.4812 5.99975 19.0312C5.99975 17.7625 5.99975 16.3125 6.36225 14.8625C6.54349 13.9562 7.44974 13.2312 8.35599 13.05C10.531 12.8687 12.8872 12.8687 15.0622 12.8687C17.2372 12.8687 19.5935 12.8687 21.7685 13.05C22.6747 13.2312 23.581 13.775 23.7622 14.8625C24.1247 16.3125 24.1247 17.7625 24.1247 19.0312C24.1247 20.4812 24.1247 21.9312 23.7622 23.3812Z" fill="white" />
</svg>
